<svg height="511pt" viewBox="1 -160 511.999 511" width="511pt" xmlns="http://www.w3.org/2000/svg"><path d="m494.203125 87.082031c-13.527344-9.480469-41.917969-22.96875-93.914063-22.96875h-8.015624l-102.511719-47.839843c-11.675781-5.449219-24.40625-8.273438-37.289063-8.273438h-89.164062c-7.597656 0-15.117188 1.542969-22.105469 4.535156l-92.566406 39.671875c-5.984375 2.566407-12.429688 3.886719-18.945313 3.886719h-6.160156c-8.851562 0-16.03125 7.179688-16.03125 16.035156v50.746094c0 7.75 5.542969 14.390625 13.164062 15.777344l75.015626 13.636718v8.015626h392.789062c8.851562 0 16.03125-7.175782 16.03125-16.03125v-37.441407c0-7.882812-3.839844-15.226562-10.296875-19.75zm0 0" fill="#ff8086"/><path d="m153.058594 30.550781-23.515625 10.695313c-5.355469 2.433594-6.34375 7.484375-5.566407 11.078125.773438 3.589843 3.773438 7.777343 9.644532 7.777343h92.238281v-32.0625h-61.191406c-4.03125 0-7.9375.84375-11.609375 2.511719zm0 0" fill="#e5646e"/><path d="m496.945312 128.242188c-6.28125 0-11.734374-3.789063-14.585937-9.390626-9.265625-18.210937-28.167969-30.691406-50.003906-30.691406-21.835938 0-40.742188 12.480469-50.007813 30.691406-2.851562 5.601563-8.300781 9.390626-14.585937 9.390626h-159.859375v-32.066407h-76.699219c-3.851563 0-7.734375-.644531-11.195313-2.335937-7.359374-3.597656-15.585937-5.679688-24.332031-5.679688-8.757812 0-17 2.070313-24.363281 5.675782-3.464844 1.695312-7.355469 2.339843-11.21875 2.339843h-52.59375v26.699219c0 .941406.085938 1.863281.246094 2.757812.152344.890626.390625 1.753907.6875 2.589844 0 .003906 0 .011719.003906.019532 1.878906 5.28125 6.449219 9.355468 12.226562 10.410156l75.011719 13.636718 16.035157 8.015626h376.757812c8.851562 0 16.03125-7.175782 16.03125-16.03125v-16.03125zm0 0" fill="#e5646e"/><path d="m207.902344 96.175781h-32.0625l19.238281 25.652344c3.027344 4.039063 7.78125 6.414063 12.824219 6.414063h32.066406l-19.238281-25.652344c-3.03125-4.039063-7.78125-6.414063-12.828125-6.414063zm0 0" fill="#6f6571"/><path d="m472.4375 144.273438c0 22.136718-17.945312 40.082031-40.082031 40.082031s-40.082031-17.945313-40.082031-40.082031c0-22.136719 17.945312-40.082032 40.082031-40.082032s40.082031 17.945313 40.082031 40.082032zm0 0" fill="#5d5360"/><path d="m135.757812 144.273438c0 22.136718-17.945312 40.082031-40.082031 40.082031s-40.078125-17.945313-40.078125-40.082031c0-22.136719 17.941406-40.082032 40.078125-40.082032s40.082031 17.945313 40.082031 40.082032zm0 0" fill="#5d5360"/><path d="m200.703125 55.714844c4.570313 5.328125 11.238281 8.398437 18.261719 8.398437h173.308594l-102.515626-47.839843c-8.613281-4.023438-17.804687-6.589844-27.203124-7.671876h-102.230469zm0 0" fill="#a4ccff"/><path d="m289.757812 16.273438c-8.613281-4.023438-17.804687-6.589844-27.203124-7.671876h-102.230469l20.09375 23.445313h143.144531zm0 0" fill="#c3ddff"/><path d="m498.542969 80.964844c-28.695313-20.128906-69.269531-24.351563-98.253907-24.351563h-6.351562l-101.007812-47.136719c-12.582032-5.875-26.574219-8.976562-40.457032-8.976562h-89.164062c-8.664063 0-17.09375 1.730469-25.058594 5.140625l-92.566406 39.671875c-5.082032 2.179688-10.460938 3.285156-15.992188 3.285156h-6.160156c-12.972656-.003906-23.53125 10.554688-23.53125 23.53125v50.914063c0 11.238281 8.007812 20.953125 19.039062 23.097656l29.679688 5.773437c3.667969 22.617188 23.324219 39.941407 46.957031 39.941407 17.679688 0 33.125-9.699219 41.328125-24.050781h254.023438c8.203125 14.351562 23.648437 24.050781 41.328125 24.050781 17.675781 0 33.125-9.699219 41.328125-24.050781h14.785156c12.972656 0 23.53125-10.554688 23.53125-23.53125v-37.441407c0-10.285156-5.03125-19.957031-13.457031-25.867187zm-211.957031-57.894532 71.882812 33.542969h-107.035156l-35.242188-41.113281h36.277344c11.710938 0 23.507812 2.617188 34.117188 7.570312zm-90.148438-7.570312 35.242188 41.113281h-12.714844c-4.835938 0-9.417969-2.105469-12.566406-5.78125l-30.285157-35.332031zm-53.960938 137.304688c.503907-2.769532.78125-5.617188.78125-8.53125 0-3.195313-.320312-6.394532-.953124-9.507813-.824219-4.058594-4.78125-6.679687-8.839844-5.859375-4.0625.824219-6.683594 4.785156-5.859375 8.84375.433593 2.128906.652343 4.324219.652343 6.523438 0 17.964843-14.617187 32.578124-32.582031 32.578124-17.964843 0-32.578125-14.613281-32.578125-32.578124 0-17.964844 14.613282-32.582032 32.578125-32.582032 4.550781 0 8.945313.917969 13.070313 2.726563 3.789062 1.660156 8.214844-.066407 9.878906-3.859375 1.664062-3.792969-.0625-8.214844-3.855469-9.878906-6.035156-2.644532-12.460937-3.988282-19.09375-3.988282-23.632812 0-43.289062 17.324219-46.957031 39.941406l-26.816406-5.214843c-4-.777344-6.90625-4.300781-6.90625-8.375v-27.382813h8.535156c4.140625 0 7.5-3.359375 7.5-7.5s-3.359375-7.5-7.5-7.5h-8.53125v-8.53125c0-4.707031 3.828125-8.53125 8.53125-8.53125h6.160156c7.574219 0 14.941406-1.515625 21.902344-4.496094l92.5625-39.671874c4.058594-1.738282 8.273438-2.890626 12.589844-3.476563l38.265625 44.640625c6 7.003906 14.730469 11.019531 23.953125 11.019531h181.324218c20.042969 0 55.804688 2.347657 82.300782 17.0625h-2.136719c-4.144531 0-7.5 3.359375-7.5 7.5 0 4.144531 3.355469 7.5 7.5 7.5h16.238281c.199219 1.03125.308594 2.085938.308594 3.15625v13.910157h-23.316406c-8.203125-14.351563-23.648438-24.046876-41.328125-24.046876-17.679688 0-33.125 9.695313-41.328125 24.046876h-14.78125c-4.144532 0-7.5 3.355468-7.5 7.5 0 4.140624 3.355468 7.5 7.5 7.5h9.308594c-.503907 2.769531-.78125 5.617187-.78125 8.53125 0 2.914062.277343 5.761718.78125 8.53125zm289.878907 24.046874c-17.964844 0-32.582031-14.613281-32.582031-32.578124 0-17.964844 14.617187-32.582032 32.582031-32.582032 17.964843 0 32.582031 14.617188 32.582031 32.582032 0 17.964843-14.617188 32.578124-32.582031 32.578124zm56.113281-24.046874h-9.3125c.503906-2.769532.78125-5.617188.78125-8.53125 0-2.914063-.277344-5.761719-.78125-8.53125h17.84375v8.53125c0 4.703124-3.828125 8.53125-8.53125 8.53125zm0 0"/><path d="m344.179688 120.742188h-100.460938l-16.988281-22.652344c-4.421875-5.894532-11.460938-9.414063-18.828125-9.414063h-32.0625c-2.84375 0-5.4375 1.605469-6.707032 4.148438-1.273437 2.539062-1 5.582031.707032 7.851562l19.238281 25.652344c4.417969 5.894531 11.457031 9.414063 18.824219 9.414063h136.277344c4.140624 0 7.5-3.359376 7.5-7.5 0-4.144532-3.359376-7.5-7.5-7.5zm-136.277344 0c-2.671875 0-5.222656-1.277344-6.824219-3.414063l-10.238281-13.652344h17.0625c2.671875 0 5.222656 1.277344 6.828125 3.414063l10.238281 13.652344zm0 0"/><path d="m95.675781 128.757812c-8.554687 0-15.515625 6.960938-15.515625 15.515626 0 8.554687 6.960938 15.515624 15.515625 15.515624 8.558594 0 15.515625-6.960937 15.515625-15.515624 0-8.554688-6.957031-15.515626-15.515625-15.515626zm0 0"/><path d="m432.355469 128.757812c-8.554688 0-15.515625 6.960938-15.515625 15.515626 0 8.554687 6.960937 15.515624 15.515625 15.515624 8.554687 0 15.515625-6.960937 15.515625-15.515624 0-8.554688-6.960938-15.515626-15.515625-15.515626zm0 0"/></svg>